<?xml version="1.0" encoding="UTF-8"?>
<svg width="216px" height="42px" viewBox="0 0 216 42" version="1.1" xmlns="http://www.w3.org/2000/svg" xmlns:xlink="http://www.w3.org/1999/xlink">
	<title>
		Group
	</title>
	<g id="Certificate" stroke="none" stroke-width="1" fill="none" fill-rule="evenodd">
		<g id="Group" transform="translate(0.000000, 0.645451)">
			<g id="Group-Copy-3">
				<path d="M8.74687491,13.932464 L8.76136344,40.1382993 L2.26186349,40.1382993 L0.5,38.3802942 L0.5,15.6948097 L2.26219686,13.932464 L8.74687491,13.932464 Z" id="Rectangle-Copy-10" stroke="#D43F37">
				</path>
				<rect id="Rectangle-Copy-11" fill="#D8D8D8" opacity="0.5" x="9.24687658" y="36.5304553" width="2.05479968" height="2.05327059">
				</rect>
				<rect id="Rectangle-Copy-12" fill="#D8D8D8" opacity="0.5" x="9.24687658" y="38.5837258" width="2.05479968" height="2.05327059">
				</rect>
				<polygon id="Rectangle" fill="#D43F37" points="2.0550777 13.4323567 11.3016763 13.4323567 11.3016763 40.6383786 2.0550777 40.6383786">
				</polygon>
				<path d="M36.0318395,13.9320622 L36.0578151,40.1378975 L29.5892828,40.1378975 L27.8117124,38.3763665 L27.8117124,15.6945595 L29.5739209,13.9320622 L36.0318395,13.9320622 Z" id="Rectangle-Copy-17" stroke="#D43F37">
				</path>
				<polygon id="Rectangle-Copy-14" fill="#D43F37" points="29.3667901 13.4323568 38.6133887 13.4323568 38.6133887 40.638192 29.3667901 40.638192">
				</polygon>
				<path d="M8.77018526,0.5 L10.7521027,9.0819703 L9.03987571,10.7929594 L0.500278026,10.7929594 L0.500278026,2.26045959 L2.26207342,0.5 L8.77018526,0.5 Z" id="Rectangle-Copy-2" stroke="#D43F37">
				</path>
				<polygon id="Rectangle-Copy" fill="#D43F37" points="2.0550777 -5.2521714e-13 11.3016763 -5.2521714e-13 11.3016763 9.23971765 2.0550777 9.23971765">
				</polygon>
				<path d="M36.0723201,0.5 L37.9804464,9.07896527 L36.2662378,10.7929882 L13.8568075,10.7929882 L13.8568075,2.26048399 L15.6185736,0.5 L36.0723201,0.5 Z" id="Rectangle-Copy-8" stroke="#D43F37">
				</path>
				<polygon id="Rectangle-Copy" fill="#D43F37" points="15.4116321 1.03703458e-14 38.5281284 0 38.5281284 9.23971765 15.4116321 9.23971765">
				</polygon>
			</g>
			<g id="Incresco" transform="translate(54.613389, 7.830549)" fill="#D43F37" fill-rule="nonzero">
				<polygon id="Path" points="5.32 0 5.32 26.524 0 26.524 0 0">
				</polygon>
				<path d="M22.23,5.168 C24.738,5.168 26.7646667,5.95966667 28.31,7.543 C29.8553333,9.12633333 30.628,11.3366667 30.628,14.174 L30.628,26.524 L25.308,26.524 L25.308,14.896 C25.308,13.224 24.89,11.9383333 24.054,11.039 C23.218,10.1396667 22.078,9.69 20.634,9.69 C19.1646667,9.69 18.0056667,10.1396667 17.157,11.039 C16.3083333,11.9383333 15.884,13.224 15.884,14.896 L15.884,26.524 L10.564,26.524 L10.564,5.472 L15.884,5.472 L15.884,8.094 C16.5933333,7.182 17.499,6.46633333 18.601,5.947 C19.703,5.42766667 20.9126667,5.168 22.23,5.168 Z" id="Path">
				</path>
				<path d="M34.314,15.998 C34.314,13.8193333 34.7573333,11.913 35.644,10.279 C36.5306667,8.645 37.7593333,7.37833333 39.33,6.479 C40.9006667,5.57966667 42.6993333,5.13 44.726,5.13 C47.3353333,5.13 49.495,5.78233333 51.205,7.087 C52.915,8.39166667 54.0613333,10.222 54.644,12.578 L48.906,12.578 C48.602,11.666 48.089,10.9503333 47.367,10.431 C46.645,9.91166667 45.752,9.652 44.688,9.652 C43.168,9.652 41.9646667,10.203 41.078,11.305 C40.1913333,12.407 39.748,13.9713333 39.748,15.998 C39.748,17.9993333 40.1913333,19.551 41.078,20.653 C41.9646667,21.755 43.168,22.306 44.688,22.306 C46.8413333,22.306 48.2473333,21.3433333 48.906,19.418 L54.644,19.418 C54.0613333,21.698 52.9086667,23.5093333 51.186,24.852 C49.4633333,26.1946667 47.31,26.866 44.726,26.866 C42.6993333,26.866 40.9006667,26.4163333 39.33,25.517 C37.7593333,24.6176667 36.5306667,23.351 35.644,21.717 C34.7573333,20.083 34.314,18.1766667 34.314,15.998 Z" id="Path">
				</path>
				<path d="M63.878,8.74 C64.562,7.62533333 65.455,6.75133333 66.557,6.118 C67.659,5.48466667 68.9193333,5.168 70.338,5.168 L70.338,10.754 L68.932,10.754 C67.26,10.754 65.9996667,11.1466667 65.151,11.932 C64.3023333,12.7173333 63.878,14.0853333 63.878,16.036 L63.878,26.524 L58.558,26.524 L58.558,5.472 L63.878,5.472 L63.878,8.74 Z" id="Path">
				</path>
				<path d="M93.48,15.542 C93.48,16.302 93.4293333,16.986 93.328,17.594 L77.938,17.594 C78.0646667,19.114 78.5966667,20.3046667 79.534,21.166 C80.4713333,22.0273333 81.624,22.458 82.992,22.458 C84.968,22.458 86.374,21.6093333 87.21,19.912 L92.948,19.912 C92.34,21.9386667 91.1746667,23.6043333 89.452,24.909 C87.7293333,26.2136667 85.614,26.866 83.106,26.866 C81.0793333,26.866 79.2616667,26.4163333 77.653,25.517 C76.0443333,24.6176667 74.7903333,23.3446667 73.891,21.698 C72.9916667,20.0513333 72.542,18.1513333 72.542,15.998 C72.542,13.8193333 72.9853333,11.9066667 73.872,10.26 C74.7586667,8.61333333 76,7.34666667 77.596,6.46 C79.192,5.57333333 81.0286667,5.13 83.106,5.13 C85.1073333,5.13 86.8996667,5.56066667 88.483,6.422 C90.0663333,7.28333333 91.295,8.50566667 92.169,10.089 C93.043,11.6723333 93.48,13.49 93.48,15.542 Z M87.97,14.022 C87.9446667,12.654 87.4506667,11.5583333 86.488,10.735 C85.5253333,9.91166667 84.3473333,9.5 82.954,9.5 C81.6366667,9.5 80.5283333,9.899 79.629,10.697 C78.7296667,11.495 78.1786667,12.6033333 77.976,14.022 L87.97,14.022 Z" id="Shape">
				</path>
				<path d="M105.412,26.866 C103.689333,26.866 102.144,26.5556667 100.776,25.935 C99.408,25.3143333 98.325,24.472 97.527,23.408 C96.729,22.344 96.292,21.166 96.216,19.874 L101.574,19.874 C101.675333,20.6846667 102.074333,21.356 102.771,21.888 C103.467667,22.42 104.335333,22.686 105.374,22.686 C106.387333,22.686 107.179,22.4833333 107.749,22.078 C108.319,21.6726667 108.604,21.1533333 108.604,20.52 C108.604,19.836 108.255667,19.323 107.559,18.981 C106.862333,18.639 105.754,18.2653333 104.234,17.86 C102.663333,17.48 101.377667,17.0873333 100.377,16.682 C99.3763333,16.2766667 98.515,15.656 97.793,14.82 C97.071,13.984 96.71,12.8566667 96.71,11.438 C96.71,10.2726667 97.0456667,9.20866667 97.717,8.246 C98.3883333,7.28333333 99.351,6.52333333 100.605,5.966 C101.859,5.40866667 103.334667,5.13 105.032,5.13 C107.54,5.13 109.541333,5.757 111.036,7.011 C112.530667,8.265 113.354,9.956 113.506,12.084 L108.414,12.084 C108.338,11.248 107.989667,10.583 107.369,10.089 C106.748333,9.595 105.918667,9.348 104.88,9.348 C103.917333,9.348 103.176333,9.52533333 102.657,9.88 C102.137667,10.2346667 101.878,10.7286667 101.878,11.362 C101.878,12.0713333 102.232667,12.6096667 102.942,12.977 C103.651333,13.3443333 104.753333,13.718 106.248,14.098 C107.768,14.478 109.022,14.8706667 110.01,15.276 C110.998,15.6813333 111.853,16.3083333 112.575,17.157 C113.297,18.0056667 113.670667,19.1266667 113.696,20.52 C113.696,21.736 113.360333,22.8253333 112.689,23.788 C112.017667,24.7506667 111.055,25.5043333 109.801,26.049 C108.547,26.5936667 107.084,26.866 105.412,26.866 Z" id="Path">
				</path>
				<path d="M116.698,15.998 C116.698,13.8193333 117.141333,11.913 118.028,10.279 C118.914667,8.645 120.143333,7.37833333 121.714,6.479 C123.284667,5.57966667 125.083333,5.13 127.11,5.13 C129.719333,5.13 131.879,5.78233333 133.589,7.087 C135.299,8.39166667 136.445333,10.222 137.028,12.578 L131.29,12.578 C130.986,11.666 130.473,10.9503333 129.751,10.431 C129.029,9.91166667 128.136,9.652 127.072,9.652 C125.552,9.652 124.348667,10.203 123.462,11.305 C122.575333,12.407 122.132,13.9713333 122.132,15.998 C122.132,17.9993333 122.575333,19.551 123.462,20.653 C124.348667,21.755 125.552,22.306 127.072,22.306 C129.225333,22.306 130.631333,21.3433333 131.29,19.418 L137.028,19.418 C136.445333,21.698 135.292667,23.5093333 133.57,24.852 C131.847333,26.1946667 129.694,26.866 127.11,26.866 C125.083333,26.866 123.284667,26.4163333 121.714,25.517 C120.143333,24.6176667 118.914667,23.351 118.028,21.717 C117.141333,20.083 116.698,18.1766667 116.698,15.998 Z" id="Path">
				</path>
				<path d="M150.29,26.866 C148.263333,26.866 146.439333,26.4163333 144.818,25.517 C143.196667,24.6176667 141.923667,23.3446667 140.999,21.698 C140.074333,20.0513333 139.612,18.1513333 139.612,15.998 C139.612,13.8446667 140.087,11.9446667 141.037,10.298 C141.987,8.65133333 143.285333,7.37833333 144.932,6.479 C146.578667,5.57966667 148.415333,5.13 150.442,5.13 C152.468667,5.13 154.305333,5.57966667 155.952,6.479 C157.598667,7.37833333 158.897,8.65133333 159.847,10.298 C160.797,11.9446667 161.272,13.8446667 161.272,15.998 C161.272,18.1513333 160.784333,20.0513333 159.809,21.698 C158.833667,23.3446667 157.516333,24.6176667 155.857,25.517 C154.197667,26.4163333 152.342,26.866 150.29,26.866 Z M150.29,22.23 C151.252667,22.23 152.158333,21.9956667 153.007,21.527 C153.855667,21.0583333 154.533333,20.3553333 155.04,19.418 C155.546667,18.4806667 155.8,17.3406667 155.8,15.998 C155.8,13.9966667 155.274333,12.4576667 154.223,11.381 C153.171667,10.3043333 151.886,9.766 150.366,9.766 C148.846,9.766 147.573,10.3043333 146.547,11.381 C145.521,12.4576667 145.008,13.9966667 145.008,15.998 C145.008,17.9993333 145.508333,19.5383333 146.509,20.615 C147.509667,21.6916667 148.77,22.23 150.29,22.23 Z" id="Shape">
				</path>
			</g>
		</g>
	</g>
</svg>
